<svg width="1440" height="1024" viewBox="0 0 1440 1024" fill="none" xmlns="http://www.w3.org/2000/svg">
<g clip-path="url(#clip0_3_329)" filter="url(#filter0_d_3_329)">
<path d="M1497 0H-305V1024H1497V0Z" fill="#202327"/>
<path d="M242.358 903.424C119.258 875.52 -9.24673 862.208 -135.274 878.592C-192.938 885.888 -249.814 899.84 -305 921.344V1024H645.33C514.797 981.504 385.391 936.832 253.845 905.984C250.016 905.088 246.187 904.32 242.358 903.424Z" fill="#202327" fill-opacity="0.05"/>
<path d="M1497 0H-305V921.344C-249.814 899.84 -192.938 885.76 -135.274 878.464C-9.24673 862.208 119.258 875.392 242.358 903.296C246.187 904.192 250.016 905.088 253.845 905.856C385.391 936.576 514.797 981.376 645.33 1023.87H1497V0Z" fill="#202327" fill-opacity="0.05"/>
<path d="M233.798 743.68C237.402 744.704 241.006 745.856 244.497 746.88C465.468 814.08 682.271 917.76 912.927 972.928C1109.12 1019.78 1306.55 1010.3 1497 959.872V0H-305V735.872C-246.097 713.344 -185.054 700.416 -123.561 696.32C-2.71448 687.872 118.132 709.376 233.798 743.68Z" fill="#202327" fill-opacity="0.05"/>
<path d="M-305 0V549.632C-242.381 526.08 -177.171 514.688 -111.961 514.176C3.81775 513.152 116.893 543.232 225.126 583.936C228.505 585.216 231.771 586.496 235.15 587.776C441.929 667.136 647.019 774.784 868.552 833.664C1078.82 889.6 1292.36 877.696 1496.89 817.536V0H-305Z" fill="#202327" fill-opacity="0.05"/>
<path d="M-100.248 332.032C10.35 339.712 115.88 377.088 216.566 424.32C219.72 425.728 222.761 427.264 225.914 428.672C418.503 520.32 611.88 631.552 824.291 694.528C1048.19 760.832 1278.62 746.752 1497 675.584V0H-305V362.496C-238.551 337.408 -169.174 327.296 -100.248 332.032Z" fill="#202327" fill-opacity="0.05"/>
<path d="M1497 0H-305V174.464C-234.835 147.712 -161.178 139.264 -88.5347 149.888C16.8823 165.376 114.753 210.944 208.007 264.576C210.935 266.24 213.751 267.904 216.679 269.568C395.077 373.376 576.741 488.32 780.142 555.264C1017.22 633.344 1265.33 617.984 1497.11 534.016V0H1497Z" fill="#2F3749" fill-opacity="0.05"/>
<path d="M207.331 110.464C371.538 226.56 541.49 344.704 735.768 416C970.703 502.272 1221.52 493.824 1454.2 409.216C1468.62 403.968 1482.81 398.464 1497.11 392.704V0H19.4727C82.5427 27.264 141.896 64.768 199.335 104.96C202.038 106.752 204.628 108.672 207.331 110.464Z" fill="#394270" fill-opacity="0.05"/>
<path d="M1497 0H255.873C388.883 109.824 530.114 210.56 691.506 276.736C907.521 365.312 1142.01 372.352 1361.62 303.744C1407.58 289.408 1452.96 271.488 1497.11 250.368V0H1497Z" fill="#3E419D" fill-opacity="0.05"/>
<path d="M1268.93 198.144C1322.09 184.576 1374.35 165.76 1425.03 142.08C1449.47 130.688 1473.46 118.016 1497 104.32V0H419.629C490.47 53.376 565.704 100.096 647.244 137.472C844.225 227.968 1062.49 251.008 1268.93 198.144Z" fill="#5144C8" fill-opacity="0.05"/>
<path d="M1176.36 92.672C1261.16 76.544 1344.06 45.184 1420.53 0H606.249C783.858 90.88 984.218 129.28 1176.36 92.672Z" fill="#7D5FDE" fill-opacity="0.05"/>
</g>
<defs>
<filter id="filter0_d_3_329" x="-309" y="0" width="1810" height="1032" filterUnits="userSpaceOnUse" color-interpolation-filters="sRGB">
<feFlood flood-opacity="0" result="BackgroundImageFix"/>
<feColorMatrix in="SourceAlpha" type="matrix" values="0 0 0 0 0 0 0 0 0 0 0 0 0 0 0 0 0 0 127 0" result="hardAlpha"/>
<feOffset dy="4"/>
<feGaussianBlur stdDeviation="2"/>
<feComposite in2="hardAlpha" operator="out"/>
<feColorMatrix type="matrix" values="0 0 0 0 0 0 0 0 0 0 0 0 0 0 0 0 0 0 0.25 0"/>
<feBlend mode="normal" in2="BackgroundImageFix" result="effect1_dropShadow_3_329"/>
<feBlend mode="normal" in="SourceGraphic" in2="effect1_dropShadow_3_329" result="shape"/>
</filter>
<clipPath id="clip0_3_329">
<rect width="1802" height="1024" fill="white" transform="translate(-305)"/>
</clipPath>
</defs>
</svg>
