<svg width="41" height="48" viewBox="0 0 41 48" fill="none" xmlns="http://www.w3.org/2000/svg">
<g filter="url(#filter0_d_3_342)">
<path d="M7.69715 30.9375C9.26846 30.9375 10.5423 29.6783 10.5423 28.125C10.5423 26.5717 9.26846 25.3125 7.69715 25.3125C6.12585 25.3125 4.85205 26.5717 4.85205 28.125C4.85205 29.6783 6.12585 30.9375 7.69715 30.9375Z" fill="white"/>
<path d="M7.69715 19.6875C9.26846 19.6875 10.5423 18.4283 10.5423 16.875C10.5423 15.3217 9.26846 14.0625 7.69715 14.0625C6.12585 14.0625 4.85205 15.3217 4.85205 16.875C4.85205 18.4283 6.12585 19.6875 7.69715 19.6875Z" fill="white"/>
<path d="M14.8097 39.375C14.639 39.375 14.4967 39.375 14.326 39.2906C13.972 39.1631 13.6834 38.9021 13.5234 38.5648C13.3635 38.2275 13.3452 37.8413 13.4725 37.4906L24.8529 6.55315C24.9989 6.22679 25.2647 5.96733 25.5966 5.82715C25.9286 5.68697 26.302 5.67651 26.6414 5.79788C26.9809 5.91925 27.2611 6.16342 27.4255 6.48108C27.5899 6.79874 27.6263 7.16625 27.5273 7.5094L16.1469 38.4469C15.9477 39.0094 15.3787 39.375 14.8097 39.375ZM23.345 39.375C23.1743 39.375 23.0321 39.375 22.8613 39.2906C22.5073 39.1631 22.2187 38.9021 22.0587 38.5648C21.8988 38.2275 21.8805 37.8413 22.0078 37.4906L33.3882 6.55315C33.5342 6.22679 33.8 5.96733 34.1319 5.82715C34.4639 5.68697 34.8373 5.67651 35.1767 5.79788C35.5162 5.91925 35.7964 6.16342 35.9608 6.48108C36.1252 6.79874 36.1616 7.16625 36.0626 7.5094L24.6822 38.4469C24.4831 39.0094 23.914 39.375 23.345 39.375Z" fill="white"/>
</g>
<defs>
<filter id="filter0_d_3_342" x="-2" y="0" width="45" height="53" filterUnits="userSpaceOnUse" color-interpolation-filters="sRGB">
<feFlood flood-opacity="0" result="BackgroundImageFix"/>
<feColorMatrix in="SourceAlpha" type="matrix" values="0 0 0 0 0 0 0 0 0 0 0 0 0 0 0 0 0 0 127 0" result="hardAlpha"/>
<feOffset dy="4"/>
<feGaussianBlur stdDeviation="2"/>
<feComposite in2="hardAlpha" operator="out"/>
<feColorMatrix type="matrix" values="0 0 0 0 0 0 0 0 0 0 0 0 0 0 0 0 0 0 0.25 0"/>
<feBlend mode="normal" in2="BackgroundImageFix" result="effect1_dropShadow_3_342"/>
<feBlend mode="normal" in="SourceGraphic" in2="effect1_dropShadow_3_342" result="shape"/>
</filter>
</defs>
</svg>
